<?xml version="1.0" standalone="no"?>
<!DOCTYPE svg PUBLIC "-//W3C//DTD SVG 20010904//EN"
 "http://www.w3.org/TR/2001/REC-SVG-20010904/DTD/svg10.dtd">
<svg version="1.0" xmlns="http://www.w3.org/2000/svg"
 width="650.000000pt" height="908.000000pt" viewBox="0 0 650.000000 908.000000"
 preserveAspectRatio="xMidYMid meet">

<g transform="translate(0.000000,908.000000) scale(0.100000,-0.100000)"
fill="#000000" stroke="none">
<path d="M2126 8660 c-454 -52 -837 -364 -938 -766 -32 -126 -31 -334 0 -492
92 -461 394 -945 976 -1566 l111 -118 7 -70 c5 -43 35 -153 77 -281 38 -117
72 -232 76 -256 3 -24 15 -55 25 -69 22 -27 27 -93 11 -135 -10 -26 -116 -108
-196 -151 -86 -47 -107 -68 -112 -119 -4 -35 -11 -47 -29 -56 -30 -13 -33 -51
-4 -51 13 0 20 -7 20 -19 0 -10 9 -21 20 -24 21 -5 28 -41 10 -52 -14 -9 -13
-72 2 -81 10 -7 19 2 44 42 10 17 14 15 56 -19 50 -41 58 -44 58 -22 0 8 9 15
20 15 19 0 20 -4 14 -112 -8 -134 -3 -163 72 -393 l55 -170 -5 -120 c-4 -101
-7 -121 -21 -123 -14 -3 -15 -11 -8 -45 13 -68 8 -460 -10 -770 -9 -158 -17
-372 -17 -475 0 -222 15 -307 129 -734 39 -146 71 -268 71 -271 0 -2 -26 -17
-57 -33 -76 -36 -166 -127 -201 -201 -23 -50 -27 -71 -27 -148 0 -82 3 -97 32
-155 18 -36 57 -94 88 -128 30 -35 62 -77 70 -92 21 -41 19 -103 -4 -131 l-19
-24 -26 28 c-14 15 -36 27 -49 27 -27 0 -57 -28 -57 -54 0 -28 46 -66 81 -66
57 0 129 95 129 171 0 8 -11 38 -25 65 -14 27 -25 51 -25 54 0 3 36 4 80 2
l79 -3 3 -62 3 -62 285 -6 c336 -7 394 -13 387 -41 -6 -20 1 -22 88 -33 28 -4
93 -21 145 -38 76 -25 111 -31 175 -30 44 0 91 5 104 10 20 8 10 11 -55 16
-77 7 -329 59 -341 71 -17 17 90 1 260 -39 34 -8 103 -15 152 -15 l90 0 -60
29 c-67 32 -107 60 -87 61 7 0 25 -6 40 -14 15 -8 63 -26 107 -42 70 -24 95
-28 200 -28 141 -1 199 17 281 86 143 121 172 245 83 358 -44 55 -83 80 -128
80 -33 0 -35 4 -50 130 -10 80 1 209 40 465 36 234 48 358 49 493 0 121 -4
151 -41 315 -23 100 -59 251 -80 335 -38 150 -39 155 -39 340 0 117 -6 221
-15 277 -35 209 -10 469 57 610 31 66 33 77 33 175 0 103 -1 106 -43 195 -24
50 -60 113 -81 140 -21 28 -42 62 -46 75 -4 14 -14 33 -22 42 -9 10 -13 27
-10 38 3 11 -1 27 -10 36 -12 11 -14 27 -10 65 7 61 -1 86 -48 138 -43 47 -43
57 13 191 19 47 43 107 54 134 10 27 26 59 34 70 8 11 14 30 14 41 0 11 22 88
50 170 43 130 51 163 56 259 7 115 15 146 39 146 7 0 27 -8 44 -17 29 -17 32
-17 58 -1 15 9 29 26 31 38 3 17 6 19 18 9 8 -6 18 -9 22 -5 4 4 -1 12 -11 17
-9 6 -17 17 -17 25 0 12 7 14 29 9 17 -3 32 -2 36 4 3 6 15 11 26 11 10 0 19
5 19 10 0 6 -4 10 -9 10 -5 0 -11 7 -15 15 -4 12 0 14 19 9 28 -7 35 11 8 21
-30 10 -65 44 -58 55 5 8 13 7 28 -3 18 -11 33 -12 80 -3 57 10 76 25 35 27
-13 1 -29 0 -37 -1 -9 -1 -12 4 -7 15 4 12 0 18 -14 22 -45 12 -16 35 65 52
77 17 95 27 95 54 l0 21 -15 -21 c-14 -20 -89 -42 -102 -29 -3 3 17 29 45 58
66 68 221 262 326 408 268 370 424 718 467 1036 16 122 7 330 -19 414 -67 223
-202 410 -392 546 -267 190 -653 257 -998 174 -293 -70 -517 -263 -732 -627
-23 -40 -45 -73 -49 -73 -4 0 -24 30 -45 68 -221 386 -464 584 -796 646 -100
19 -296 27 -394 16z m2528 -2766 c9 -3 16 -10 16 -15 0 -14 -26 -10 -40 6 -13
16 -3 20 24 9z m-2224 -1412 c0 -10 -7 -27 -15 -38 -14 -18 -15 -17 -9 11 10
47 24 62 24 27z m1083 -994 c4 -40 23 -156 42 -258 l35 -185 -41 -80 c-74
-143 -69 -160 -69 231 0 193 3 354 7 357 15 16 20 3 26 -65z m108 -585 c6 -32
34 -119 61 -193 101 -275 104 -349 19 -425 -100 -90 -220 -266 -297 -437 -28
-62 -41 -82 -46 -70 -11 29 -9 97 6 146 11 35 12 63 5 114 -8 58 -3 102 35
337 l43 270 78 158 c43 86 79 157 81 157 1 0 8 -26 15 -57z m170 -650 c6 -49
30 -106 85 -207 31 -54 43 -152 44 -351 0 -95 15 -269 36 -413 l6 -43 -28 8
c-89 24 -224 -13 -307 -86 -69 -61 -116 -194 -117 -328 0 -23 -4 -44 -8 -47
-5 -3 -41 28 -80 67 l-72 73 34 48 34 48 -14 56 c-33 141 -37 172 -24 196 9
18 10 51 2 142 -8 110 -7 126 14 204 72 269 184 500 309 638 59 66 78 65 86
-5z m160 -1055 c11 -10 14 -31 11 -91 l-4 -77 -25 20 c-41 32 -104 27 -141
-10 -43 -42 -49 -80 -22 -136 23 -47 80 -94 115 -94 53 -1 54 -16 12 -132 -27
-74 -54 -102 -134 -145 l-52 -28 -26 25 c-36 34 -108 145 -129 200 -24 61 -22
172 4 250 39 115 90 172 187 210 57 22 181 27 204 8z m-1271 -173 c12 -44 28
-95 36 -113 17 -41 10 -59 -25 -67 -55 -12 -101 -70 -101 -127 0 -41 40 -85
85 -94 30 -5 30 -6 26 -61 l-3 -56 -73 6 c-40 3 -86 12 -103 21 -40 21 -80 70
-110 136 -52 112 -27 227 73 338 43 47 154 118 166 104 3 -4 16 -43 29 -87z
m1247 -47 c19 -18 23 -32 23 -79 0 -32 -3 -60 -8 -63 -12 -7 -70 21 -97 48
-66 66 14 158 82 94z m-476 -196 c56 -59 177 -232 163 -232 -3 0 -28 15 -57
33 -63 41 -127 110 -127 137 0 10 -8 24 -18 29 -18 10 -47 101 -32 101 4 0 36
-31 71 -68z m1057 -79 c68 -51 93 -162 53 -241 -28 -56 -100 -126 -162 -158
-50 -27 -62 -29 -164 -29 -111 0 -211 22 -288 62 l-28 14 98 48 c92 45 202 86
302 111 64 17 112 53 127 96 11 31 10 42 -6 79 -10 24 -16 45 -14 48 9 9 49
-6 82 -30z m-1788 -40 c0 -7 -4 -13 -9 -13 -10 0 -21 25 -21 48 1 15 3 14 15
-2 8 -11 15 -26 15 -33z"/>
</g>
</svg>
